<?xml version="1.0" standalone="no"?><!DOCTYPE svg PUBLIC "-//W3C//DTD SVG 1.1//EN" "http://www.w3.org/Graphics/SVG/1.1/DTD/svg11.dtd"><svg t="1760194056044" class="icon" viewBox="0 0 1024 1024" version="1.1" xmlns="http://www.w3.org/2000/svg" p-id="5558" width="500" height="500" xmlns:xlink="http://www.w3.org/1999/xlink"><path d="M0 0h1024v1024H0z" fill="#FFFFFF" p-id="5559"></path><path d="M864 984H160c-66.168 0-120-53.832-120-120V160c0-66.168 53.832-120 120-120h704c66.168 0 120 53.832 120 120v704c0 66.168-53.832 120-120 120z" fill="#D8DDE3" p-id="5560"></path><path d="M160 80c-44.112 0-80 35.888-80 80v704c0 44.112 35.888 80 80 80h704c44.112 0 80-35.888 80-80V160c0-44.112-35.888-80-80-80H160m0-80h704c88.366 0 160 71.634 160 160v704c0 88.366-71.634 160-160 160H160c-88.366 0-160-71.634-160-160V160C0 71.634 71.634 0 160 0z" fill="#505873" p-id="5561"></path><path d="M790 482h-196c-28.672 0-52-23.328-52-52v-196c0-28.672 23.328-52 52-52h196c28.672 0 52 23.328 52 52v196c0 28.672-23.328 52-52 52z" fill="#FFFFFF" p-id="5562"></path><path d="M594 212c-12.13 0-22 9.87-22 22v196c0 12.13 9.87 22 22 22h196c12.13 0 22-9.87 22-22v-196c0-12.13-9.87-22-22-22h-196m0-60h196c45.288 0 82 36.712 82 82v196c0 45.288-36.712 82-82 82h-196c-45.288 0-82-36.712-82-82v-196c0-45.288 36.712-82 82-82z" fill="#505873" p-id="5563"></path><path d="M192 598h640a40 40 0 0 1 0 80H192a40 40 0 0 1 0-80z" fill="#FF402A" p-id="5564"></path><path d="M192 756h352a40 40 0 0 1 0 80H192a40 40 0 0 1 0-80z" fill="#FF402A" p-id="5565"></path><path d="M192 174h180a40 40 0 0 1 0 80H192a40 40 0 0 1 0-80z" fill="#505873" p-id="5566"></path><path d="M192 302h180a40 40 0 0 1 0 80H192a40 40 0 0 1 0-80z" fill="#505873" p-id="5567"></path><path d="M192 430h180a40 40 0 0 1 0 80H192a40 40 0 0 1 0-80z" fill="#505873" p-id="5568"></path></svg>