<?xml version="1.0" standalone="no"?><!DOCTYPE svg PUBLIC "-//W3C//DTD SVG 1.1//EN" "http://www.w3.org/Graphics/SVG/1.1/DTD/svg11.dtd"><svg t="1760451562249" class="icon" viewBox="0 0 1024 1024" version="1.1" xmlns="http://www.w3.org/2000/svg" p-id="5299" width="500" height="500" xmlns:xlink="http://www.w3.org/1999/xlink"><path d="M625 294.1c-18.5-44.8-62.6-76.3-114-76.3-68.1 0-123.4 55.2-123.4 123.4 0 7.8 0.8 15.3 2.2 22.7 80.9-12.7 160.4-36.9 235.2-69.8z" fill="#D1A6FF" p-id="5300"></path><path d="M511 464.6c68.1 0 123.4-55.2 123.4-123.4 0-16.7-3.4-32.6-9.4-47.1-74.8 32.9-154.3 57.1-235.2 69.8 10.6 57.3 60.8 100.7 121.2 100.7z" fill="#C68AFF" p-id="5301"></path><path d="M308.9 228.2c112-110 291.4-110 403.4 0 4.8 4.7 9.2 9.8 13.6 14.8 24.3-14 47.8-28.9 70.4-44.6-7.5-9.1-15.4-18-23.9-26.5-144.6-144.6-378.9-144.6-523.5 0C194.3 226.3 160.4 293.6 147 364c27.2 4.6 54.6 7.5 82.2 8.9 11.4-53.2 38-103.8 79.7-144.7z" fill="#D1A6FF" p-id="5302"></path><path d="M510.6 515.8c-85 0-164 43.7-209.1 115.6-67.7-71.6-91.6-168.9-72.3-258.6-27.5-1.3-55-4.3-82.2-8.9-21.6 113.4 10.2 234.8 95.2 324.2 150.1-12 301.8-44.2 434.5-107.9-44.9-40.7-103.8-64.4-166.1-64.4z" fill="#C68AFF" p-id="5303"></path><path d="M719.7 631.5c-12-19.2-26.6-36.2-43-51.1C544 644 392.3 676.3 242.2 688.2c2.2 2.3 4.3 4.8 6.6 7.1L510.5 957l261.7-261.7c70.8-70.8 106.5-163 108-255.7-29.2 28.8-60.8 54.6-94.4 77.7-12.4 41.4-34.4 80.6-66.1 114.2z" fill="#BC5FFF" p-id="5304"></path><path d="M725.9 242.9c68 76.6 88.2 181.1 60.1 274.3 33.6-23.1 65.1-48.9 94.4-77.7 1.3-85.5-26.5-171.5-84.1-241.2-22.7 15.7-46.2 30.6-70.4 44.6z" fill="#C68AFF" p-id="5305"></path></svg>