<?xml version="1.0" standalone="no"?><!DOCTYPE svg PUBLIC "-//W3C//DTD SVG 1.1//EN" "http://www.w3.org/Graphics/SVG/1.1/DTD/svg11.dtd"><svg t="1760258888810" class="icon" viewBox="0 0 1252 1024" version="1.1" xmlns="http://www.w3.org/2000/svg" p-id="4756" width="611.328125" height="500" xmlns:xlink="http://www.w3.org/1999/xlink"><path d="M124.361757 71.66236s-0.661499-1.763997-0.881998-2.645995c0.2205 0.881998 0.661499 1.763997 0.881998 2.645995z" fill="#F78118" p-id="4757"></path><path d="M122.597761 67.031869s0.440999 1.543497 0.881998 2.204996c0.2205 0.881998 0.661499 1.763997 0.881998 2.645995 0 0.440999 0.440999 0.881998 0.661499 1.543497 8.378984 18.301464 26.680448 29.987941 46.745909 29.987941h756.975021a51.707149 51.707149 0 0 0 0-103.414298H171.989664C143.54522 0 120.392765 23.152455 120.392765 51.596899c0 2.425495 0.2205 4.850991 0.661499 7.276486 0.440999 2.866494 0.881998 5.512489 1.763996 8.158484zM732.05857 842.969854H206.387597V589.174849c-8.819983 3.527993-17.860465 5.953488-27.341947 8.158484-2.204996 0.440999-4.409991 1.102498-6.614987 1.543497-1.102498 0-2.204996 0.2205-3.086994 0.440999-4.850991 0.881998-9.701981 1.543497-14.552971 1.984497-5.732989 0.440999-11.465978 0.881998-17.198967 0.881998-11.465978 0-23.152455-1.102498-34.397933-3.307494v347.286822c0 28.444444 23.152455 51.596899 51.5969 51.596899h679.579672c-49.391904-38.587425-85.994832-92.609819-102.3118-154.790697zM412.775194 550.587425c76.072351 0 137.591731-61.51938 137.591731-137.591732 0 75.851852-61.51938 137.591731-137.591731 137.591732z m666.570198-63.944875c14.111972-22.049957 21.388458-47.407407 21.388458-73.646857l-96.799311-257.984496 96.799311 257.984496c0 27.121447-7.937984 52.258398-21.388458 73.646857zM137.591731 550.366925c76.072351 0 137.591731-61.51938 137.591732-137.591731 0 75.851852-61.51938 137.591731-137.591732 137.591731z" fill="#F78118" p-id="4758"></path><path d="M871.634798 515.307494a290.177433 290.177433 0 0 1 207.710594-28.885444c14.111972-22.049957 21.388458-47.627907 21.388458-73.646856l-96.799311-257.984496H96.799311L0 412.775194c0 76.072351 61.51938 137.591731 137.591731 137.591731s137.591731-61.51938 137.591732-137.591731c0 76.072351 61.51938 137.591731 137.591731 137.591731s137.591731-61.51938 137.591731-137.591731a137.481481 137.481481 0 0 0 137.591731 137.591731c76.072351 0 137.591731-61.51938 137.591732-137.591731 0 4.850991 0.2205 9.481481 0.661498 14.111972 3.527993 35.059432 20.50646 66.149871 45.202412 88.420328z m91.72782 86.87683z m-17.198966-0.881998c-4.850991-0.440999-9.701981-1.102498-14.552972-1.984497a13.009475 13.009475 0 0 1-3.086994-0.440999c1.102498 0 2.204996 0.2205 3.086994 0.440999 4.850991 0.881998 9.701981 1.543497 14.552972 1.984497zM893.905254 680.90267v138.25323c3.086994 12.347976 9.260982 24.916451 18.521964 34.177433 6.173988 7.717485 13.891473 15.43497 23.372954 21.829458s16.978467 12.347976 26.459949 18.521964c7.717485 4.630491 16.978467 9.260982 26.459948 13.891472 4.630491 3.086994 9.260982 4.630491 12.347976 4.630491h6.173988l18.521964-4.630491c9.260982-4.630491 16.978467-9.260982 24.916451-13.891472 9.260982-6.173988 16.978467-12.347976 24.916451-18.521964 7.717485-6.173988 15.43497-13.891473 21.829458-21.829458 7.717485-9.260982 18.521964-26.459948 16.978466-46.525409v-125.684754l-111.793281-24.916452-108.706288 24.916452z m201.757106 99.445306c0 1.543497 12.347976 57.329888-49.612403 89.963824-10.804479 6.173988-40.351421 16.978467-46.525409 18.521964h-1.543497v-104.075797h-85.333334v-89.963824l91.507322-16.978467v102.5323h91.507321z" fill="#F78118" p-id="4759"></path><path d="M1003.934539 527.21447c-136.709733 0-248.282515 111.793282-248.282515 248.282515s111.793282 248.282515 248.282515 248.282515 248.282515-111.793282 248.282515-248.282515-111.793282-248.282515-248.282515-248.282515zM1137.336779 815.848407c0 9.260982-3.086994 20.28596-6.173988 28.003445-4.630491 9.260982-10.804479 18.521964-18.521964 26.459948-7.717485 9.260982-15.43497 16.978467-24.916451 24.916452s-18.521964 13.891473-28.003446 20.28596c-9.260982 6.173988-18.521964 10.804479-28.003445 15.43497-7.717485 3.086994-15.43497 6.173988-24.916451 7.717485l-3.086994 1.543497-3.086994-1.543497c-4.630491-1.543497-6.173988-3.086994-10.804479-4.630491-1.543497-1.543497-4.630491-3.086994-7.717485-4.630491-10.804479-4.630491-20.28596-9.260982-29.546942-15.43497-10.804479-6.173988-20.28596-13.891473-29.546943-20.28596-9.260982-7.717485-18.521964-15.43497-26.459948-24.916452-7.717485-7.717485-13.891473-16.978467-18.521964-28.003445-4.630491-9.260982-6.173988-18.521964-7.717485-28.003445v-153.6882l130.315246-26.459949 135.166236 26.459949 1.543497 156.775194z" fill="#F78118" p-id="4760"></path></svg>