<?xml version="1.0" standalone="no"?><!DOCTYPE svg PUBLIC "-//W3C//DTD SVG 1.1//EN" "http://www.w3.org/Graphics/SVG/1.1/DTD/svg11.dtd"><svg t="1760194085770" class="icon" viewBox="0 0 1024 1024" version="1.1" xmlns="http://www.w3.org/2000/svg" p-id="7554" width="500" height="500" xmlns:xlink="http://www.w3.org/1999/xlink"><path d="M137.142857 960m-27.428571 0a27.428571 27.428571 0 1 0 54.857143 0 27.428571 27.428571 0 1 0-54.857143 0Z" fill="#999999" p-id="7555"></path><path d="M301.714286 960m-27.428572 0a27.428571 27.428571 0 1 0 54.857143 0 27.428571 27.428571 0 1 0-54.857143 0Z" fill="#999999" p-id="7556"></path><path d="M466.285714 932.571429h91.428572c14.628571 0 27.428571 12.8 27.428571 27.428571s-12.8 27.428571-27.428571 27.428571h-91.428572c-14.628571 0-27.428571-12.8-27.428571-27.428571s12.8-27.428571 27.428571-27.428571z" fill="#999999" p-id="7557"></path><path d="M722.285714 960m-27.428571 0a27.428571 27.428571 0 1 0 54.857143 0 27.428571 27.428571 0 1 0-54.857143 0Z" fill="#999999" p-id="7558"></path><path d="M886.857143 960m-27.428572 0a27.428571 27.428571 0 1 0 54.857143 0 27.428571 27.428571 0 1 0-54.857143 0Z" fill="#999999" p-id="7559"></path><path d="M804.571429 892.342857H219.428571c-47.542857 0-87.771429-40.228571-87.771428-87.771428V128c0-47.542857 40.228571-87.771429 87.771428-87.771429h585.142858c47.542857 0 87.771429 40.228571 87.771428 87.771429v676.571429c0 47.542857-40.228571 87.771429-87.771428 87.771428z m-585.142858-822.857143c-32.914286 0-58.514286 25.6-58.514285 58.514286v676.571429c0 32.914286 25.6 58.514286 58.514285 58.514285h585.142858c32.914286 0 58.514286-25.6 58.514285-58.514285V128c0-32.914286-25.6-58.514286-58.514285-58.514286H219.428571zM914.285714 800.914286v-29.257143c7.314286 0 12.8-1.828571 16.457143-3.657143 7.314286-7.314286 5.485714-25.6 5.485714-43.885714v-530.285715c0-20.114286 0-38.4-5.485714-43.885714-3.657143-3.657143-7.314286-3.657143-16.457143-3.657143V113.371429c16.457143 0 27.428571 3.657143 36.571429 12.8 14.628571 14.628571 14.628571 40.228571 14.628571 65.828571v530.285714c0 25.6 0 49.371429-14.628571 65.828572-9.142857 9.142857-20.114286 12.8-36.571429 12.8z m-804.571428 0c-16.457143 0-27.428571-3.657143-36.571429-12.8-14.628571-14.628571-14.628571-40.228571-14.628571-65.828572v-530.285714c0-25.6 0-49.371429 14.628571-65.828571 9.142857-9.142857 20.114286-12.8 36.571429-12.8v29.257142c-7.314286 0-12.8 1.828571-16.457143 3.657143-7.314286 7.314286-5.485714 25.6-5.485714 43.885715v530.285714c0 20.114286 0 38.4 5.485714 43.885714 3.657143 3.657143 7.314286 3.657143 16.457143 3.657143v32.914286z" fill="#999999" p-id="7560"></path><path d="M263.314286 672.914286l85.942857-113.371429c12.8-16.457143 34.742857-20.114286 51.2-7.314286 3.657143 1.828571 5.485714 5.485714 9.142857 9.142858l27.428571 40.228571c10.971429 16.457143 34.742857 21.942857 51.2 10.971429 3.657143-1.828571 7.314286-5.485714 9.142858-9.142858l78.628571-117.028571c10.971429-16.457143 34.742857-21.942857 51.2-9.142857 3.657143 1.828571 7.314286 5.485714 9.142857 9.142857L766.171429 676.571429c10.971429 16.457143 7.314286 40.228571-9.142858 51.2-7.314286 1.828571-14.628571 3.657143-21.942857 3.657142H292.571429c-20.114286 0-36.571429-16.457143-36.571429-36.571428 0-7.314286 3.657143-16.457143 7.314286-21.942857z" fill="#1890FF" p-id="7561"></path><path d="M384 292.571429m-109.714286 0a109.714286 109.714286 0 1 0 219.428572 0 109.714286 109.714286 0 1 0-219.428572 0Z" fill="#1890FF" p-id="7562"></path></svg>