<?xml version="1.0" standalone="no"?><!DOCTYPE svg PUBLIC "-//W3C//DTD SVG 1.1//EN" "http://www.w3.org/Graphics/SVG/1.1/DTD/svg11.dtd"><svg t="1760252456276" class="icon" viewBox="0 0 1026 1024" version="1.1" xmlns="http://www.w3.org/2000/svg" p-id="5103" width="500.9765625" height="500" xmlns:xlink="http://www.w3.org/1999/xlink"><path d="M836.027158 131.755155a42.097704 42.097704 0 0 0-6.661029-2.33136 45.694659 45.694659 0 0 0-6.661029-1.532037 48.02602 48.02602 0 0 0-6.661029-0.799323h-8.859169l-37.235152-1.132375c-24.779028-0.732713-49.624667-1.465426-74.403695-2.864243s-49.624667-3.397125-74.470305-5.062382a70.407077 70.407077 0 0 0-59.283159 24.779028A72.671827 72.671827 0 0 0 546.205783 173.186756c-0.599493 2.797632-0.999154 5.661875-1.465426 8.459507v27.310219c0.599493 24.779028 2.531191 49.624667 4.59611 74.403695L552.866812 320.395499c0.532882 6.128147 0.799323 12.855786 1.598647 17.385285 0 2.464581 1.132375 4.929162 1.598647 7.327132l2.33136 7.060691a73.27132 73.27132 0 0 0 39.966175 40.698888l3.330514 1.398816 3.530346 1.132375a48.425681 48.425681 0 0 0 7.127301 1.731868 64.678592 64.678592 0 0 0 7.327132 1.132375c2.33136 0 5.994926 0 8.925779 0.666102 6.194757 0.399662 12.389514 0.932544 18.584271 1.465427h37.168542a158.865543 158.865543 0 0 0 158.465882-158.465882V134.819229c-2.39797-1.132375-4.5295-2.131529-6.79425-3.064074zM611.81692 177.849476a22.84733 22.84733 0 0 0-9.059 21.048852v48.292461a19.983087 19.983087 0 0 1-39.966174 0v-48.292461a62.080791 62.080791 0 0 1 26.177844-53.821115 19.983087 19.983087 0 0 1 22.84733 32.772263z" fill="#FF97A9" p-id="5104"></path><path d="M886.317928 339.712483v8.259676a71.805893 71.805893 0 0 1-11.523581 31.706498 72.805048 72.805048 0 0 1-60.415533 33.305146c-49.624667 0.599493-99.249333-5.395434-148.874-10.724257l-18.584271-1.731868h37.168542a158.865543 158.865543 0 0 0 158.465882-158.465881v-107.242568a66.210629 66.210629 0 0 1 30.041241 36.102777 91.256098 91.256098 0 0 1 3.530345 30.374293c0.333051 12.389514 0.666103 24.779028 1.265596 37.168542 1.132375 24.845638 3.463735 49.624667 6.061536 74.470305l2.13153 18.584271z" fill="#F95D7B" p-id="5105"></path><path d="M979.172673 56.618747a179.115072 179.115072 0 0 0-52.022637-38.767189A174.05269 174.05269 0 0 0 864.469752 0.666103l-16.11969-0.666103h-43.163468l-57.484681 0.532882L632.799161 1.931698c-76.801665 0.666103-153.203669 1.332206-230.071944 2.731022s-153.203669 3.463735-230.005334 5.128993A166.525727 166.525727 0 0 0 10.592435 161.196904l-0.599493 14.987315V276.832368c0 38.300917 0 76.668445-0.399661 114.969362l-1.198986 115.035972-2.930852 114.969362c-1.865088 76.735055-3.996617 153.203669-5.462044 230.138555a170.189293 170.189293 0 0 0 45.294998 116.301568 175.051844 175.051844 0 0 0 50.890262 38.234307 167.524881 167.524881 0 0 0 61.414688 16.852403l15.853249 0.666103h43.163468l57.484681-1.198985c38.300917-0.599493 76.668445-1.998309 114.969362-3.130684 76.668445-2.464581 153.203669-5.661875 230.005334-7.593573 38.367527-1.265596 76.668445-1.598647 115.035972-2.397971l114.969362-0.732713a160.39758 160.39758 0 0 0 106.576465-40.632277 163.594874 163.594874 0 0 0 54.220777-102.380017l1.132375-14.854095 0.466272-14.387823 0.865934-28.775645 1.998309-57.484681 3.996617-114.969362c1.265596-38.367527 2.864243-76.668445 3.663566-115.035972l1.532037-57.484681 0.932544-57.484681c0.732713-38.367527 0.932544-76.668445 1.198985-115.035972l0.799324-115.169193A176.517271 176.517271 0 0 0 979.172673 56.618747z m19.983087 808.249268a149.939765 149.939765 0 0 1-47.226696 98.649841 153.203669 153.203669 0 0 1-102.713068 41.031939l-114.969362-0.732713c-38.367527-0.799323-76.668445-1.132375-115.035972-2.397971-76.668445-1.931698-153.203669-5.128992-230.005334-7.593573-38.300917-1.132375-76.668445-2.531191-114.969362-3.130683l-57.484681-1.198986h-43.163468l-12.789176-0.732713A141.813309 141.813309 0 0 1 33.306544 851.679178l-5.595264-229.872114-2.930853-114.969362-1.731868-115.035972c0-38.300917-0.599493-76.668445-0.399661-114.969362V176.250829l0.865933-13.72172a145.410265 145.410265 0 0 1 49.691277-94.653223 146.54264 146.54264 0 0 1 99.515775-36.235998c76.668445 1.665257 153.203669 3.863397 230.005334 5.128993s153.203669 2.064919 229.938724 2.731021l115.035972 0.999155 57.484681 0.532882h43.163468l12.522735 0.732713a137.816692 137.816692 0 0 1 86.593378 43.42991 135.15228 135.15228 0 0 1 36.036167 90.057113c0.865934 76.268783 0.732713 153.203669 2.131529 229.805503l0.932544 57.484681 1.465427 57.484681c0.865934 38.367527 2.39797 76.668445 3.663566 115.035972l4.063228 114.969362 1.998308 57.484681 0.799324 28.775646 0.399661 14.321212z" fill="#315472" p-id="5106"></path><path d="M174.720192 426.305861a66.210629 66.210629 0 0 0 10.857477 3.130684 78.866584 78.866584 0 0 0 11.123918 1.798477 88.658297 88.658297 0 0 0 11.190529 0.399662c3.796787 0 6.661029 0 9.658492-0.466272 12.389514-0.799323 24.779028-2.131529 37.235153-3.263904 49.624667-5.328823 99.249333-11.323749 148.874-10.724257a94.520003 94.520003 0 0 0 68.941651-30.174462A96.651532 96.651532 0 0 0 492.917551 351.968776c1.065765-3.263904 1.798478-6.661029 2.664411-10.124764s1.132375-7.060691 1.532037-10.324595L499.57858 313.068367c2.597801-24.779028 4.929162-49.624667 6.061536-74.403695 0.599493-12.389514 0.932544-24.779028 1.265596-37.235153 0-6.327978 0.532882-11.790021 0-19.983087 0-3.863397-0.932544-7.726794-1.398817-11.590191s-1.731868-7.593573-2.731021-11.390359a101.447473 101.447473 0 0 0-62.413843-65.278085 77.534378 77.534378 0 0 0-11.190529-3.330515 82.130489 82.130489 0 0 0-11.45697-1.998308 93.254407 93.254407 0 0 0-11.790021-1.265596h-9.791713l-37.235153 1.132375c-24.779028 0.732713-49.624667 1.465426-74.403694 2.864242s-49.624667 3.397125-74.403695 5.128993a95.052885 95.052885 0 0 0-86.593378 74.536915c-0.732713 3.263904-0.999154 6.661029-1.532037 9.858323s-0.466272 6.661029-0.532882 9.924934c0 6.194757 0 12.389514-0.333052 18.584271-0.599493 24.779028-2.531191 49.624667-4.59611 74.403694L113.238893 320.395499a114.902752 114.902752 0 0 0 2.131529 41.897872A94.520003 94.520003 0 0 0 174.720192 426.305861z m-40.632278-244.526377c0.466272-2.864243 0.865934-5.661875 1.465427-8.459507a72.205555 72.205555 0 0 1 15.187146-30.440903 70.473688 70.473688 0 0 1 59.283159-24.779028c24.779028 1.665257 49.624667 3.863397 74.403694 5.128992s49.624667 2.064919 74.403695 2.864242l37.235153 1.132375h8.859168a53.288233 53.288233 0 0 1 6.661029 0.799324 43.363299 43.363299 0 0 1 6.66103 1.532037 39.499902 39.499902 0 0 1 6.661029 2.264749 65.411306 65.411306 0 0 1 36.569049 39.166851 91.988812 91.988812 0 0 1 3.596956 30.374293c0.333051 12.389514 0.666103 24.779028 1.265595 37.235153 1.132375 24.779028 3.463735 49.624667 6.061537 74.403694l2.064919 18.584271 0.666103 8.259677c0 2.731022 0 5.462044-0.333052 8.259676A70.673519 70.673519 0 0 1 464.008684 379.678657a72.671827 72.671827 0 0 1-60.348923 33.305146c-49.624667 0.599493-99.249333-5.395434-148.874-10.724257-12.389514-1.132375-24.779028-2.464581-37.235153-3.263904-2.930853 0-6.661029 0-8.925778-0.666103a57.28485 57.28485 0 0 1-7.327132-1.132375 46.627204 46.627204 0 0 1-7.127302-1.731868l-3.463735-1.065764-3.397125-1.398816a73.27132 73.27132 0 0 1-39.966174-40.698888l-2.33136-7.060691c-0.466272-2.464581-1.332206-4.862551-1.598647-7.327132-0.799323-4.5295-1.065765-11.257139-1.598647-17.385286l-3.130684-37.235152c-2.064919-24.779028-3.930007-49.624667-4.59611-74.403695 0-6.194757-0.333051-12.389514-0.333051-18.584271zM917.491544 180.98016c0-3.863397-0.932544-7.726794-1.398816-11.590191s-1.798478-7.660183-2.797632-11.390359a101.380863 101.380863 0 0 0-62.413843-65.278085 72.005724 72.005724 0 0 0-11.190529-3.330515 82.330319 82.330319 0 0 0-11.45697-1.998309 95.585767 95.585767 0 0 0-11.52358-0.732713h-9.791713l-37.235152 1.132375c-24.779028 0.732713-49.624667 1.465426-74.403695 2.864243s-49.624667 3.397125-74.470305 5.062382a95.052885 95.052885 0 0 0-86.593378 74.536915c-0.732713 3.263904-0.999154 6.661029-1.532037 9.858323s-0.466272 6.661029-0.532882 9.858323c0 6.261367 0 12.456124-0.399662 18.650882-0.599493 24.779028-2.531191 49.624667-4.5295 74.403694l-3.130683 37.235153a115.369024 115.369024 0 0 0 2.131529 42.031093 94.653223 94.653223 0 0 0 59.083328 63.679438 62.014181 62.014181 0 0 0 10.924087 3.130684 76.535224 76.535224 0 0 0 11.057309 1.798478 79.532687 79.532687 0 0 0 11.257139 0.399662c3.796787 0 6.661029 0 9.658492-0.466272 12.389514-0.799323 24.779028-2.131529 37.168542-3.263905 49.624667-5.262213 99.249333-11.257139 148.874-10.724256A94.186951 94.186951 0 0 0 883.320465 386.339686a96.718142 96.718142 0 0 0 20.515969-34.703961c1.065765-3.330515 1.731868-6.661029 2.664412-10.124764s1.132375-7.060691 1.532037-10.324595l2.064919-18.584271c2.597801-24.845638 4.929162-49.624667 6.061536-74.470305 0.599493-12.389514 0.932544-24.779028 1.265596-37.168543 0.133221-5.994926 0.532882-11.52358 0.06661-19.983087zM885.918266 348.038769a71.805893 71.805893 0 0 1-11.123919 31.639888 72.805048 72.805048 0 0 1-60.415533 33.305146c-49.624667 0.599493-99.249333-5.395434-148.874-10.724257-12.389514-1.132375-24.779028-2.39797-37.168542-3.197294-2.930853 0-6.661029 0-8.925779-0.666103a64.678592 64.678592 0 0 1-7.327132-1.132375 48.425681 48.425681 0 0 1-7.127301-1.731867l-3.530346-1.132375-3.330514-1.398816a73.27132 73.27132 0 0 1-39.966175-40.698888l-2.33136-7.060691c-0.466272-2.39797-1.332206-4.862551-1.598647-7.327132C553.399695 333.051454 552.866812 326.390425 552.866812 320.395499l-3.130683-37.235153c-2.064919-24.779028-3.996617-49.624667-4.596111-74.403695v-27.310219c0.466272-2.797632 0.865934-5.661875 1.465427-8.459507a72.671827 72.671827 0 0 1 14.920705-30.440903 70.407077 70.407077 0 0 1 59.283159-24.779028c24.845638 1.665257 49.624667 3.863397 74.470305 5.062382s49.624667 2.131529 74.403695 2.864243l37.235152 1.132375h8.859169a48.02602 48.02602 0 0 1 6.661029 0.799323 45.694659 45.694659 0 0 1 6.661029 1.532037 42.097704 42.097704 0 0 1 6.661029 2.33136 65.278085 65.278085 0 0 1 36.63566 39.166851 91.256098 91.256098 0 0 1 3.530345 30.374293c0.333051 12.389514 0.666103 24.779028 1.265596 37.168542 1.132375 24.845638 3.463735 49.624667 6.061536 74.470305l2.13153 18.584271 0.666103 8.259676c-0.133221 2.997463 0.199831 5.795095-0.133221 8.526117zM506.705881 547.736421c0-3.863397-0.932544-7.726794-1.398816-11.590191s-1.731868-7.660183-2.731022-11.45697A101.580693 101.580693 0 0 0 440.1622 459.611006a74.270474 74.270474 0 0 0-11.190529-3.330514 84.128797 84.128797 0 0 0-11.45697-1.998309 96.718142 96.718142 0 0 0-11.59019-0.732713h-9.725103l-37.235152 1.132375c-24.845638 0.732713-49.624667 1.465426-74.470305 2.797632s-49.624667 3.463735-74.403695 5.128992a95.119495 95.119495 0 0 0-86.593378 74.470305c-0.732713 3.263904-0.999154 6.661029-1.598647 9.924934s-0.399662 6.661029-0.532882 9.858323v18.650881c-0.666103 24.779028-2.531191 49.624667-4.59611 74.403695l-3.530346 37.235153a114.103428 114.103428 0 0 0 2.131529 41.897872 94.520003 94.520003 0 0 0 59.34977 63.612828 61.348078 61.348078 0 0 0 10.857477 3.130684 78.999805 78.999805 0 0 0 11.123918 1.798478 89.857282 89.857282 0 0 0 11.190529 0.399661c3.863397 0 6.661029 0 9.658492-0.466272 12.389514-0.799323 24.845638-2.131529 37.235153-3.263904 49.624667-5.328823 99.249333-11.323749 148.874-10.724257a94.453392 94.453392 0 0 0 69.274702-30.107851 97.184414 97.184414 0 0 0 19.983088-34.703962c1.065765-3.330515 1.798478-6.661029 2.664411-10.124764s1.132375-7.060691 1.532037-10.324595L499.57858 679.424966c2.597801-24.845638 4.929162-49.624667 6.061536-74.470305 0.599493-12.389514 0.932544-24.779028 1.265596-37.235153-0.06661-5.994926 0.333051-11.52358-0.199831-19.983087z m-31.506668 167.058609a70.207246 70.207246 0 0 1-11.190529 31.90633 72.671827 72.671827 0 0 1-60.348923 32.639042c-49.624667 0.599493-99.249333-5.395434-148.874-10.724257-12.389514-1.132375-24.845638-2.464581-37.235153-3.263904-2.930853 0-6.661029 0-8.925778-0.666103a53.954336 53.954336 0 0 1-7.327132-1.065765 44.695505 44.695505 0 0 1-7.127302-1.798477l-3.463735-1.065765-3.397125-1.398816a73.27132 73.27132 0 0 1-39.966174-40.698888l-2.33136-7.060691a72.405386 72.405386 0 0 1-1.665257-7.327132c-0.799323-4.5295-0.999154-11.257139-1.598647-17.385286l-3.130684-37.235152c-2.064919-24.779028-3.930007-49.624667-4.59611-74.403695v-27.310219c0.466272-2.864243 0.799323-5.728485 1.465426-8.459507a72.205555 72.205555 0 0 1 15.187147-30.440903 70.673519 70.673519 0 0 1 59.349769-24.845638c24.779028 1.731868 49.624667 3.863397 74.403694 5.128992s49.624667 2.064919 74.470305 2.864242l37.235153 1.065765h8.859169a49.091784 49.091784 0 0 1 6.661029 0.799324 47.626358 47.626358 0 0 1 6.661029 1.532036 38.034476 38.034476 0 0 1 6.661029 2.331361 65.211475 65.211475 0 0 1 36.56905 39.10024 93.254407 93.254407 0 0 1 3.596955 30.374293c0 12.456124 0.666103 24.845638 1.265596 37.235152 1.132375 24.845638 3.463735 49.624667 6.061536 74.470305l2.064919 18.584272 0.666103 8.259676c0.199831 3.330515 0.266441 6.128147 0 8.859168zM916.092728 536.14623c-0.732713-3.796787-1.731868-7.593573-2.731022-11.390359a101.447473 101.447473 0 0 0-62.413843-65.278085 77.534378 77.534378 0 0 0-11.190528-3.330515 82.130489 82.130489 0 0 0-11.45697-1.998309 93.254407 93.254407 0 0 0-11.590191-0.732713h-9.791713l-37.235152 1.132375c-24.779028 0.732713-49.624667 1.465426-74.403695 2.864243s-49.624667 3.397125-74.403695 5.128992a95.052885 95.052885 0 0 0-86.593378 74.536915c-0.732713 3.263904-0.999154 6.661029-1.532037 9.858324s-0.466272 6.661029-0.532882 9.924933c0 6.194757 0 12.389514-0.333051 18.584271-0.599493 24.779028-2.531191 49.624667-4.59611 74.403695l-3.130684 37.235152a114.902752 114.902752 0 0 0 2.131529 41.897873A94.520003 94.520003 0 0 0 585.505855 792.66246a66.144019 66.144019 0 0 0 10.857477 3.130684 78.866584 78.866584 0 0 0 11.123919 1.798478 88.591687 88.591687 0 0 0 11.190528 0.399661c3.796787 0 6.661029 0 9.658493-0.466272 12.389514-0.799323 24.779028-2.131529 37.235152-3.263904 49.624667-5.328823 99.249333-11.323749 148.874-10.724257a94.520003 94.520003 0 0 0 68.941651-30.174461 96.651532 96.651532 0 0 0 20.449359-34.770572c1.065765-3.263904 1.798478-6.661029 2.664412-10.124764s1.132375-7.060691 1.532037-10.324595l2.064919-18.584272c2.597801-24.779028 4.929162-49.624667 6.061536-74.403694 0.599493-12.389514 0.932544-24.779028 1.265596-37.235153 0-6.327978 0.532882-11.790021 0-19.983087-0.06661-4.063228-0.865934-7.926625-1.332206-11.790022zM885.918266 714.79503a70.673519 70.673519 0 0 1-11.190529 31.90633 72.671827 72.671827 0 0 1-60.348923 32.905483c-49.624667 0.599493-99.249333-5.395434-148.874-10.724257-12.389514-1.132375-24.779028-2.464581-37.235153-3.263904-2.930853 0-6.661029 0-8.925779-0.666103a57.35146 57.35146 0 0 1-7.327132-1.132375 46.627204 46.627204 0 0 1-7.127301-1.731867l-3.463735-1.065765-3.397125-1.398816a73.27132 73.27132 0 0 1-39.966174-40.698888l-2.33136-7.060691c-0.466272-2.464581-1.332206-4.862551-1.598647-7.327132-0.799323-4.5295-1.065765-11.257139-1.598647-17.385285l-3.130684-37.235153c-2.064919-24.779028-3.930007-49.624667-4.59611-74.403695 0-6.194757-0.333051-12.389514-0.333051-18.584271v-8.659338c0.466272-2.864243 0.865934-5.661875 1.465426-8.459507a72.205555 72.205555 0 0 1 15.187146-30.440902 70.473688 70.473688 0 0 1 59.283159-24.779029c24.779028 1.665257 49.624667 3.863397 74.403695 5.128993s49.624667 2.064919 74.403695 2.864242l37.235152 1.132375h8.859169a53.288233 53.288233 0 0 1 6.661029 0.799324 43.363299 43.363299 0 0 1 6.661029 1.532036 39.499902 39.499902 0 0 1 6.661029 2.26475 65.411306 65.411306 0 0 1 37.301763 39.300072 91.988812 91.988812 0 0 1 3.596956 30.374292c0.333051 12.389514 0.666103 24.779028 1.265595 37.235153 1.132375 24.779028 3.463735 49.624667 6.061537 74.403695l2.064919 18.584271 0.666103 8.259676c-0.333051 2.797632-0.333051 5.595264-0.333052 8.326286zM848.416672 835.492877a133.220582 133.220582 0 0 0-65.344695-12.789176 119.898523 119.898523 0 0 0-61.747739 21.182073 104.711377 104.711377 0 0 0-23.913095 22.048006 52.555519 52.555519 0 0 0-7.460352 12.722566 48.09263 48.09263 0 0 0-25.978014-26.644117 50.690431 50.690431 0 0 0-11.123918-3.064073l-5.262213-0.666103-4.59611-0.532882-18.384441-1.798478c-24.512587-2.597801-49.025174-4.929162-73.271319-6.061537s-49.025174-1.598647-73.27132-1.998308c-49.025174-0.599493-98.116958 0.999154-147.142133 2.46458-24.512587 0.732713-49.025174 1.465426-73.271319 2.864243s-49.025174 3.397125-73.27132 5.128992a49.424836 49.424836 0 0 0-38.367528 22.181227A47.559748 47.559748 0 0 0 139.883009 912.560984a46.960255 46.960255 0 0 0 29.974631 28.442594 68.74182 68.74182 0 0 0 19.983088 1.998308c6.128147 0 12.256294 0 18.38444 0.333052 49.025174 1.198985 98.116958 7.660183 147.142132 10.191374a905.899954 905.899954 0 0 0 147.142132-3.930007c49.025174-5.328823 98.116958-11.323749 147.142133-10.724257a43.030248 43.030248 0 0 0 33.904638-16.519352 42.097704 42.097704 0 0 0 6.661029-12.589345 48.02602 48.02602 0 0 0 8.992389 12.722566 99.915436 99.915436 0 0 0 24.312756 18.31783 138.282964 138.282964 0 0 0 59.149938 17.118845 159.065374 159.065374 0 0 0 62.746894-8.792559 93.8539 93.8539 0 0 0 29.70819-17.651727 52.355689 52.355689 0 0 0 17.984778-36.369219 55.886034 55.886034 0 0 0-15.786638-38.500748 101.780524 101.780524 0 0 0-28.908867-21.115462zM678.893482 919.222013a35.037013 35.037013 0 0 1-12.456124 11.59019 36.835491 36.835491 0 0 1-16.652573 4.329669c-49.025174 0.599493-98.116958-5.395434-147.142132-10.724257a905.899954 905.899954 0 0 0-147.142132-3.930007c-49.025174 2.597801-98.116958 8.992389-147.142133 10.191375-6.128147 0-12.256294 0.333051-18.38444 0.333051a46.627204 46.627204 0 0 1-16.386131-1.465426 31.839719 31.839719 0 0 1-20.715801-21.182073 29.84141 29.84141 0 0 1 5.795095-27.843101 28.642425 28.642425 0 0 1 24.645808-10.257985c24.512587 1.665257 49.025174 3.863397 73.27132 5.128992s49.025174 2.064919 73.27132 2.864243c49.025174 1.465426 98.116958 3.064073 147.142132 2.464581 24.512587-0.333051 49.025174-0.865934 73.27132-1.998309s49.025174-3.463735 73.27132-6.061537l18.38444-2.064919a56.019255 56.019255 0 0 1 15.520198-0.732713 31.706498 31.706498 0 0 1 13.322058 5.728485 32.505822 32.505822 0 0 1 6.661029 43.629741z m176.050999-8.193066a66.210629 66.210629 0 0 1-19.650036 14.054771 135.951603 135.951603 0 0 1-52.222468 13.322058 164.327587 164.327587 0 0 1-55.819424-4.862551 67.209783 67.209783 0 0 1-24.978859-13.322058 34.104469 34.104469 0 0 1-10.191374-15.320367 45.694659 45.694659 0 0 0 0.333051-16.985624 31.240226 31.240226 0 0 1 11.923242-14.720874 64.21232 64.21232 0 0 1 25.445131-9.525272 251.187406 251.187406 0 0 1 53.288233-0.799323 201.962402 201.962402 0 0 1 49.691277 9.19222 65.877578 65.877578 0 0 1 19.983087 10.257985 17.451896 17.451896 0 0 1 2.13153 28.908866z" fill="#315472" p-id="5107"></path><path d="M425.374716 498.111754a42.097704 42.097704 0 0 0-6.661029-2.33136 45.694659 45.694659 0 0 0-6.661029-1.532036 48.02602 48.02602 0 0 0-6.66103-0.799324h-8.859168l-37.235153-1.132375c-24.779028-0.732713-49.624667-1.465426-74.403695-2.864242s-49.624667-3.397125-74.470305-5.062383a70.407077 70.407077 0 0 0-59.283158 24.779029A72.671827 72.671827 0 0 0 135.619951 539.543355c-0.599493 2.797632-0.999154 5.661875-1.465427 8.459507v27.310219c0.599493 24.779028 2.531191 49.624667 4.59611 74.403695l3.130684 37.235153c0.532882 6.128147 0.799323 12.855786 1.598647 17.385286 0 2.464581 1.132375 4.929162 1.598647 7.327132l2.33136 7.06069a73.27132 73.27132 0 0 0 39.966175 40.698888l3.330514 1.398816 3.530346 1.132375a48.425681 48.425681 0 0 0 7.127301 1.731868 64.678592 64.678592 0 0 0 7.327132 1.132375c2.33136 0 5.994926 0 8.925779 0.666103 6.194757 0.399662 12.389514 0.932544 18.584271 1.465426h37.168542a158.865543 158.865543 0 0 0 158.532492-158.665713V501.175828c-2.131529-1.132375-4.263059-2.131529-6.527808-3.064074zM201.164477 544.206076a22.84733 22.84733 0 0 0-9.059 21.048851v48.292461a19.983087 19.983087 0 0 1-39.966174 0v-48.292461a62.080791 62.080791 0 0 1 26.177844-53.821114 19.983087 19.983087 0 0 1 22.84733 32.772263z" fill="#FF97A9" p-id="5108"></path><path d="M475.665485 706.069082v8.259676a71.805893 71.805893 0 0 1-11.52358 31.706499 72.805048 72.805048 0 0 1-60.415534 33.305145c-49.624667 0.599493-99.249333-5.395434-148.874-10.724257l-18.584271-1.731867h37.168542a158.865543 158.865543 0 0 0 158.465882-158.599103V501.175828a66.210629 66.210629 0 0 1 30.107852 36.102777 91.256098 91.256098 0 0 1 3.530345 30.374293c0.333051 12.389514 0.666103 24.779028 1.265596 37.168542 1.132375 24.845638 3.463735 49.624667 6.061536 74.470305l2.131529 18.584271z" fill="#F95D7B" p-id="5109"></path></svg>